<svg width="1059" height="660" viewBox="0 0 1059 660" fill="none" xmlns="http://www.w3.org/2000/svg">
<g opacity="0.3">
<g clip-path="url(#clip0_150_1550)">
<path d="M208.728 140.913L30.9883 193.144C22.3508 186.026 18.8662 176.461 20.854 164.3L201.712 110.51L255.891 312.806" stroke="#7C5527" stroke-width="3" stroke-miterlimit="10"/>
<path d="M30.9867 193.144C27.736 206.404 30.9867 216.663 40.7312 223.936L106.994 204.447" stroke="#7C5527" stroke-width="3" stroke-miterlimit="10"/>
<path d="M40.7324 223.936C39.2512 236.76 41.4496 247.549 50.8667 254.339L116.35 234.85" stroke="#7C5527" stroke-width="3" stroke-miterlimit="10"/>
<path d="M234.843 233.291L61.0009 284.742C53.1274 277.515 49.3621 267.638 50.8666 254.339" stroke="#7C5527" stroke-width="3" stroke-miterlimit="10"/>
<path d="M137.397 294.876L71.1341 315.145C62.5278 308.705 59.1523 298.571 60.9999 284.742" stroke="#7C5527" stroke-width="3" stroke-miterlimit="10"/>
<path d="M146.751 325.279L80.4888 345.547C71.8279 338.056 68.0392 328.241 71.1341 315.145" stroke="#7C5527" stroke-width="3" stroke-miterlimit="10"/>
<path d="M156.886 356.461L91.4028 375.171C83.2018 368.973 79.5613 359.096 80.489 345.547" stroke="#7C5527" stroke-width="3" stroke-miterlimit="10"/>
<path d="M264.465 355.682L101.537 405.573C92.1824 398.277 88.0508 388.501 91.4029 375.171" stroke="#7C5527" stroke-width="3" stroke-miterlimit="10"/>
<path d="M176.189 414.538L110.893 434.417C101.538 426.91 98.4202 417.29 101.538 405.574" stroke="#7C5527" stroke-width="3" stroke-miterlimit="10"/>
<path d="M185.729 443.772L121.026 463.261C113.176 456.424 109.792 446.812 110.892 434.417" stroke="#7C5527" stroke-width="3" stroke-miterlimit="10"/>
<path d="M299.546 442.992L131.161 492.884C123.14 484.979 120.185 474.923 121.027 463.261" stroke="#7C5527" stroke-width="3" stroke-miterlimit="10"/>
<path d="M205.999 503.018L140.516 522.507C131.162 515.203 128.043 505.334 131.162 492.884" stroke="#7C5527" stroke-width="3" stroke-miterlimit="10"/>
<path d="M215.354 531.862L149.871 551.351C141.459 544.273 139.191 534.255 140.516 522.507" stroke="#7C5527" stroke-width="3" stroke-miterlimit="10"/>
<path d="M224.707 561.485L160.004 580.195C152.107 573.709 148.311 564.378 149.87 551.351" stroke="#7C5527" stroke-width="3" stroke-miterlimit="10"/>
<path d="M339.303 560.706L170.139 609.038C160.55 604.416 157.354 594.648 160.004 580.195" stroke="#7C5527" stroke-width="3" stroke-miterlimit="10"/>
<path d="M170.138 609.038C169.008 622.205 172.578 631.396 180.273 637.103L350.217 587.211L290.713 416.238" stroke="#7C5527" stroke-width="3" stroke-miterlimit="10"/>
<path d="M219.252 175.604L108.406 208.54L103.098 191.974L214.575 159.233L219.252 175.604Z" fill="#7C5527"/>
<path d="M229.581 214.589L120.248 247.323L115.57 230.952L225.013 197.533L229.581 214.589Z" fill="#7C5527"/>
<path d="M242.95 264.489L138.099 296.895L133.5 279.285L238.569 248.149L242.95 264.489Z" fill="#7C5527"/>
<path d="M253.108 302.414L149.871 334.634L144.414 317.483L248.75 286.153L253.108 302.414Z" fill="#7C5527"/>
<path d="M345.54 42.2989C243.878 59.7766 135.738 89.7974 23.5824 127.59C6.72055 132.057 -2.82905 149.87 2.79157 166.381L163.373 638.397C168.456 653.333 184.452 661.557 199.552 656.997C271.1 640.509 337.137 621.371 394.653 598.125" stroke="#7C5527" stroke-width="3" stroke-miterlimit="10"/>
<path d="M302.665 421.944C318.568 477.457 337.987 534.014 358.809 587.211C358.809 587.211 440.647 612.936 460.915 617.614C481.184 622.291 499.893 615.275 499.893 615.275C499.893 615.275 522.501 605.92 529.704 602.529C536.907 599.138 532.728 587.211 532.728 587.211L418.843 211.658C418.843 211.658 391.535 101.545 378.282 96.868C297.987 70.363 207.559 108.561 207.559 108.561L265.246 308.129" stroke="#7C5527" stroke-width="3" stroke-miterlimit="10"/>
<path d="M273.297 159.233L278.497 175.604L319.868 208.54L315.136 191.195L273.297 159.233Z" stroke="#7C5527" stroke-width="3" stroke-miterlimit="10"/>
<path d="M283.432 191.195L288.631 207.565L330.003 240.502L325.271 223.157L283.432 191.195Z" stroke="#7C5527" stroke-width="3" stroke-miterlimit="10"/>
<path d="M293.566 223.157L298.766 239.527L340.137 272.464L335.405 255.119L293.566 223.157Z" stroke="#7C5527" stroke-width="3" stroke-miterlimit="10"/>
<path d="M303.701 255.119L308.901 271.489L350.272 304.426L345.54 287.08L303.701 255.119Z" stroke="#7C5527" stroke-width="3" stroke-miterlimit="10"/>
<path d="M313.834 287.081L319.034 303.451L360.405 336.388L355.673 319.042L313.834 287.081Z" stroke="#7C5527" stroke-width="3" stroke-miterlimit="10"/>
<path d="M380.994 405.574L385.297 422.724L360.406 444.614L355.674 428.181L380.994 405.574Z" stroke="#7C5527" stroke-width="3" stroke-miterlimit="10"/>
<path d="M391.908 436.756L396.211 453.906L371.32 475.796L366.588 459.363L391.908 436.756Z" stroke="#7C5527" stroke-width="3" stroke-miterlimit="10"/>
<path d="M402.822 467.938L407.125 485.089L382.234 506.979L377.502 490.545L402.822 467.938Z" stroke="#7C5527" stroke-width="3" stroke-miterlimit="10"/>
<path d="M409.838 497.561L414.141 514.712L389.25 536.602L384.518 520.169L409.838 497.561Z" stroke="#7C5527" stroke-width="3" stroke-miterlimit="10"/>
<path d="M419.972 527.964L424.276 545.115L399.384 567.005L394.652 550.572L419.972 527.964Z" stroke="#7C5527" stroke-width="3" stroke-miterlimit="10"/>
<path d="M335.078 188.614C333.769 184.95 336.24 181.021 340.107 180.608C343.669 180.226 348.604 179.595 352.548 178.714C357.023 177.716 361.178 176.726 363.602 176.134C365.364 175.705 367.243 176.071 368.67 177.186C368.716 177.225 368.771 177.264 368.818 177.303C372.45 180.273 371.11 186.151 366.635 187.57C362.16 188.989 354.256 190.969 341.058 192.473C340.543 192.536 340.052 192.715 339.576 192.918C337.838 193.643 336.068 191.382 335.078 188.607V188.614Z" stroke="#7C5527" stroke-width="3" stroke-miterlimit="10"/>
<path d="M341.315 210.442C340.005 206.778 342.476 202.849 346.343 202.436C349.905 202.054 354.84 201.423 358.785 200.542C363.259 199.544 367.414 198.554 369.839 197.961C371.601 197.533 373.479 197.899 374.906 199.014C374.953 199.053 375.007 199.092 375.054 199.131C378.687 202.101 377.346 207.979 372.871 209.397C368.397 210.816 360.492 212.796 347.294 214.301C346.779 214.363 346.288 214.543 345.813 214.745C344.074 215.47 342.305 213.209 341.315 210.434V210.442Z" stroke="#7C5527" stroke-width="3" stroke-miterlimit="10"/>
<path d="M347.551 232.27C346.241 228.606 348.713 224.677 352.579 224.264C356.142 223.882 361.076 223.25 365.021 222.369C369.496 221.371 373.651 220.381 376.075 219.789C377.837 219.36 379.716 219.727 381.142 220.841C381.189 220.88 381.244 220.919 381.29 220.958C384.923 223.928 383.582 229.806 379.108 231.225C374.633 232.644 366.728 234.624 353.53 236.129C353.016 236.191 352.525 236.37 352.049 236.573C350.311 237.298 348.541 235.037 347.551 232.262V232.27Z" stroke="#7C5527" stroke-width="3" stroke-miterlimit="10"/>
<path d="M354.567 252.538C353.257 248.874 355.728 244.945 359.595 244.532C363.157 244.15 368.092 243.519 372.037 242.638C376.511 241.64 380.666 240.65 383.091 240.057C384.853 239.629 386.731 239.995 388.158 241.11C388.205 241.149 388.259 241.188 388.306 241.227C391.939 244.197 390.598 250.075 386.123 251.494C381.649 252.912 373.744 254.892 360.546 256.397C360.031 256.459 359.54 256.639 359.065 256.841C357.326 257.566 355.557 255.306 354.567 252.53V252.538Z" stroke="#7C5527" stroke-width="3" stroke-miterlimit="10"/>
<path d="M361.582 272.807C360.273 269.143 362.744 265.214 366.61 264.801C370.173 264.419 375.108 263.787 379.052 262.906C383.527 261.909 387.682 260.918 390.106 260.326C391.868 259.897 393.747 260.264 395.174 261.378C395.22 261.417 395.275 261.456 395.322 261.495C398.954 264.465 397.614 270.343 393.139 271.762C388.664 273.181 380.759 275.161 367.562 276.666C367.047 276.728 366.556 276.907 366.08 277.11C364.342 277.835 362.572 275.574 361.582 272.799V272.807Z" stroke="#7C5527" stroke-width="3" stroke-miterlimit="10"/>
<path d="M368.6 293.075C367.29 289.411 369.761 285.482 373.628 285.069C377.191 284.687 382.125 284.056 386.07 283.175C390.544 282.177 394.7 281.187 397.124 280.595C398.886 280.166 400.764 280.532 402.191 281.647C402.238 281.686 402.292 281.725 402.339 281.764C405.972 284.734 404.631 290.612 400.156 292.031C395.682 293.449 387.777 295.43 374.579 296.934C374.065 296.996 373.573 297.176 373.098 297.378C371.36 298.103 369.59 295.843 368.6 293.068V293.075Z" stroke="#7C5527" stroke-width="3" stroke-miterlimit="10"/>
<path d="M375.615 314.123C374.306 310.459 376.777 306.531 380.644 306.117C384.206 305.735 389.141 305.104 393.085 304.223C397.56 303.225 401.715 302.235 404.14 301.643C405.901 301.214 407.78 301.58 409.207 302.695C409.253 302.734 409.308 302.773 409.355 302.812C412.988 305.782 411.647 311.66 407.172 313.079C402.697 314.498 394.793 316.478 381.595 317.982C381.08 318.045 380.589 318.224 380.114 318.427C378.375 319.152 376.606 316.891 375.615 314.116V314.123Z" stroke="#7C5527" stroke-width="3" stroke-miterlimit="10"/>
<path d="M381.073 335.172C379.763 331.508 382.234 327.579 386.101 327.165C389.663 326.783 394.598 326.152 398.542 325.271C403.017 324.273 407.172 323.283 409.597 322.691C411.358 322.262 413.237 322.628 414.664 323.743C414.711 323.782 414.765 323.821 414.812 323.86C418.445 326.83 417.104 332.708 412.629 334.127C408.154 335.546 400.25 337.526 387.052 339.03C386.537 339.093 386.046 339.272 385.571 339.475C383.832 340.2 382.063 337.939 381.073 335.164V335.172Z" stroke="#7C5527" stroke-width="3" stroke-miterlimit="10"/>
<path d="M386.53 354.661C385.22 350.997 387.691 347.068 391.558 346.654C395.12 346.272 400.055 345.641 403.999 344.76C408.474 343.762 412.629 342.772 415.054 342.18C416.815 341.751 418.694 342.117 420.121 343.232C420.168 343.271 420.222 343.31 420.269 343.349C423.902 346.319 422.561 352.197 418.086 353.616C413.611 355.035 405.707 357.015 392.509 358.519C391.994 358.582 391.503 358.761 391.028 358.964C389.289 359.689 387.52 357.428 386.53 354.653V354.661Z" stroke="#7C5527" stroke-width="3" stroke-miterlimit="10"/>
<path d="M393.545 376.488C392.236 372.824 394.707 368.895 398.573 368.482C402.136 368.1 407.071 367.469 411.015 366.588C415.49 365.59 419.645 364.6 422.069 364.007C423.831 363.579 425.71 363.945 427.136 365.06C427.183 365.099 427.238 365.138 427.285 365.177C430.917 368.147 429.576 374.025 425.102 375.444C420.627 376.862 412.722 378.842 399.524 380.347C399.01 380.409 398.519 380.589 398.043 380.791C396.305 381.516 394.535 379.256 393.545 376.48V376.488Z" stroke="#7C5527" stroke-width="3" stroke-miterlimit="10"/>
<path d="M400.561 395.977C399.251 392.313 401.722 388.384 405.589 387.971C409.152 387.589 414.086 386.958 418.031 386.077C422.505 385.079 426.66 384.089 429.085 383.496C430.847 383.068 432.725 383.434 434.152 384.549C434.199 384.588 434.253 384.627 434.3 384.666C437.933 387.636 436.592 393.514 432.117 394.933C427.643 396.351 419.738 398.331 406.54 399.836C406.026 399.898 405.534 400.078 405.059 400.28C403.32 401.005 401.551 398.745 400.561 395.969V395.977Z" stroke="#7C5527" stroke-width="3" stroke-miterlimit="10"/>
<path d="M406.797 415.466C405.487 411.802 407.959 407.873 411.825 407.46C415.388 407.078 420.322 406.447 424.267 405.566C428.742 404.568 432.897 403.578 435.321 402.985C437.083 402.557 438.962 402.923 440.388 404.038C440.435 404.077 440.49 404.116 440.536 404.155C444.169 407.125 442.828 413.003 438.354 414.421C433.879 415.84 425.974 417.82 412.776 419.325C412.262 419.387 411.771 419.567 411.295 419.769C409.557 420.494 407.787 418.234 406.797 415.458V415.466Z" stroke="#7C5527" stroke-width="3" stroke-miterlimit="10"/>
<path d="M413.033 436.514C411.724 432.85 414.195 428.921 418.062 428.508C421.624 428.126 426.559 427.495 430.503 426.614C434.978 425.616 439.133 424.626 441.558 424.033C443.319 423.605 445.198 423.971 446.625 425.086C446.671 425.125 446.726 425.164 446.773 425.203C450.406 428.173 449.065 434.051 444.59 435.47C440.115 436.888 432.211 438.868 419.013 440.373C418.498 440.435 418.007 440.615 417.531 440.817C415.793 441.542 414.024 439.282 413.033 436.506V436.514Z" stroke="#7C5527" stroke-width="3" stroke-miterlimit="10"/>
<path d="M420.049 457.562C418.739 453.898 421.211 449.969 425.077 449.556C428.64 449.174 433.574 448.543 437.519 447.662C441.994 446.664 446.149 445.674 448.573 445.082C450.335 444.653 452.214 445.019 453.64 446.134C453.687 446.173 453.742 446.212 453.788 446.251C457.421 449.221 456.08 455.099 451.606 456.518C447.131 457.936 439.226 459.917 426.028 461.421C425.514 461.483 425.023 461.663 424.547 461.865C422.809 462.59 421.039 460.33 420.049 457.555V457.562Z" stroke="#7C5527" stroke-width="3" stroke-miterlimit="10"/>
<path d="M424.727 477.051C423.417 473.387 425.888 469.458 429.755 469.045C433.318 468.663 438.252 468.032 442.197 467.151C446.671 466.153 450.826 465.163 453.251 464.571C455.013 464.142 456.891 464.508 458.318 465.623C458.365 465.662 458.419 465.701 458.466 465.74C462.099 468.71 460.758 474.588 456.283 476.007C451.809 477.425 443.904 479.406 430.706 480.91C430.192 480.972 429.7 481.152 429.225 481.354C427.486 482.079 425.717 479.819 424.727 477.043V477.051Z" stroke="#7C5527" stroke-width="3" stroke-miterlimit="10"/>
<path d="M431.742 497.32C430.433 493.656 432.904 489.727 436.771 489.314C440.333 488.932 445.268 488.3 449.212 487.419C453.687 486.422 457.842 485.432 460.266 484.839C462.028 484.41 463.907 484.777 465.334 485.891C465.38 485.93 465.435 485.969 465.482 486.008C469.114 488.979 467.774 494.856 463.299 496.275C458.824 497.694 450.92 499.674 437.722 501.179C437.207 501.241 436.716 501.42 436.24 501.623C434.502 502.348 432.732 500.087 431.742 497.312V497.32Z" stroke="#7C5527" stroke-width="3" stroke-miterlimit="10"/>
<path d="M437.199 517.588C435.89 513.924 438.361 509.995 442.228 509.582C445.79 509.2 450.725 508.569 454.669 507.688C459.144 506.69 463.299 505.7 465.724 505.108C467.485 504.679 469.364 505.045 470.791 506.16C470.837 506.199 470.892 506.238 470.939 506.277C474.572 509.247 473.231 515.125 468.756 516.544C464.281 517.963 456.377 519.943 443.179 521.447C442.664 521.51 442.173 521.689 441.698 521.892C439.959 522.616 438.19 520.356 437.199 517.581V517.588Z" stroke="#7C5527" stroke-width="3" stroke-miterlimit="10"/>
<path d="M442.657 537.857C441.347 534.193 443.818 530.264 447.685 529.851C451.247 529.469 456.182 528.837 460.126 527.957C464.601 526.959 468.756 525.969 471.181 525.376C472.942 524.947 474.821 525.314 476.248 526.429C476.294 526.468 476.349 526.507 476.396 526.546C480.029 529.516 478.688 535.393 474.213 536.812C469.738 538.231 461.834 540.211 448.636 541.716C448.121 541.778 447.63 541.957 447.155 542.16C445.416 542.885 443.647 540.624 442.657 537.849V537.857Z" stroke="#7C5527" stroke-width="3" stroke-miterlimit="10"/>
<path d="M448.114 558.125C446.804 554.462 449.275 550.533 453.142 550.119C456.704 549.737 461.639 549.106 465.583 548.225C470.058 547.227 474.213 546.237 476.638 545.645C478.399 545.216 480.278 545.582 481.705 546.697C481.751 546.736 481.806 546.775 481.853 546.814C485.486 549.784 484.145 555.662 479.67 557.081C475.195 558.5 467.291 560.48 454.093 561.984C453.578 562.047 453.087 562.226 452.612 562.429C450.873 563.154 449.104 560.893 448.114 558.118V558.125Z" stroke="#7C5527" stroke-width="3" stroke-miterlimit="10"/>
<path d="M529.702 602.521C529.702 602.521 527.176 607.472 539.649 605.912C552.122 604.353 608.251 577.848 608.251 577.848M608.251 577.848C608.251 577.848 609.81 572.508 608.251 565.04C606.691 557.58 464.812 81.2691 464.812 81.2691C464.812 81.2691 461.693 57.8823 439.866 55.5436C418.038 53.2049 345.539 42.2911 345.539 42.2911L365.293 37.4656L455.457 51.6458C455.457 51.6458 465.591 50.0867 474.946 78.1508C484.301 106.215 616.046 562.569 616.046 562.569C616.046 562.569 619.196 571.908 616.046 574.504C612.897 577.1 608.251 577.848 608.251 577.848Z" stroke="#7C5527" stroke-width="3" stroke-miterlimit="10"/>
<path d="M308.121 352.563L264.466 354.123C261.09 369.885 264.294 381.929 274.6 389.982L318.255 388.423" stroke="#7C5527" stroke-width="3" stroke-miterlimit="10"/>
<path d="M291.751 305.79L274.39 299.943L266.025 266.812L284.337 272.518L343.202 466.379L324.492 458.584L315.138 427.401" stroke="#7C5527" stroke-width="3" stroke-miterlimit="10"/>
<path d="M282.029 389.717C282.029 389.717 278.763 403.515 290.706 416.238C294.861 419.606 333.652 434.947 333.652 434.947" stroke="#7C5527" stroke-width="3" stroke-miterlimit="10"/>
<path d="M281.756 396.959L297.862 402.822C297.862 402.822 305.782 411.81 302.664 421.944" stroke="#7C5527" stroke-width="3" stroke-miterlimit="10"/>
<path d="M264.465 354.123L269.477 350.56L307.637 349.266" stroke="#7C5527" stroke-width="3" stroke-miterlimit="10"/>
<path d="M296.24 311.73L263.678 308.129C263.678 308.129 255.883 308.908 256.662 318.263C257.442 327.618 268.356 345.547 268.356 345.547L298.758 348.666L286.285 310.467" stroke="#7C5527" stroke-width="3" stroke-miterlimit="10"/>
<path d="M256.67 318.263C256.67 318.263 281.561 321.288 277.687 340.434C277.718 340.091 266.025 340.434 266.025 340.434" stroke="#7C5527" stroke-width="3" stroke-miterlimit="10"/>
<path d="M429.046 36.1404V23.0594C429.046 19.5435 432.18 16.8619 435.657 17.3998L513.792 29.5999C525.86 31.4864 535.432 40.7709 537.685 52.7762L632.417 558.367C632.417 558.367 631.552 568.618 625.744 570.505C619.945 572.399 616.047 574.504 616.047 574.504C628.52 568.821 625.401 558.359 625.401 558.359L504.079 62.9962C501.046 50.6168 490.468 41.5427 477.776 40.4279L395.533 33.1936C392.438 32.9208 389.483 34.5657 388.08 37.3409L386.342 40.7865" stroke="#7C5527" stroke-width="3" stroke-miterlimit="10"/>
<path d="M1035.77 217.318C1035.77 217.318 1038.42 219.181 1035.77 223.897C1034.96 225.339 1016.12 261.277 990.383 310.444" stroke="#7C5527" stroke-width="3" stroke-miterlimit="10"/>
<path d="M976.648 336.676C974.488 340.8 972.298 344.986 970.076 349.219" stroke="#7C5527" stroke-width="3" stroke-miterlimit="10"/>
<path d="M956.222 375.693C954.086 379.778 951.927 383.894 949.775 388.026" stroke="#7C5527" stroke-width="3" stroke-miterlimit="10"/>
<path d="M935.798 414.726C933.217 419.652 930.637 424.579 928.072 429.483" stroke="#7C5527" stroke-width="3" stroke-miterlimit="10"/>
<path d="M838.221 601.243C838.221 601.243 873.48 533.819 914.22 455.964" stroke="#7C5527" stroke-width="3" stroke-miterlimit="10"/>
<path d="M924.955 435.446C922.578 439.991 920.208 444.52 917.854 449.018" stroke="#7C5527" stroke-width="3" stroke-miterlimit="10"/>
<path d="M946.018 395.205C943.407 400.187 940.795 405.16 938.184 410.157" stroke="#7C5527" stroke-width="3" stroke-miterlimit="10"/>
<path d="M966.435 356.181C964.283 360.289 962.109 364.444 959.926 368.622" stroke="#7C5527" stroke-width="3" stroke-miterlimit="10"/>
<path d="M986.861 317.156C984.693 321.303 982.487 325.528 980.234 329.824" stroke="#7C5527" stroke-width="3" stroke-miterlimit="10"/>
<path d="M654.244 564.604C659.701 569.281 698.679 589.549 698.679 589.549C698.679 589.549 785.99 630.866 797.683 635.543C809.376 640.221 820.29 637.103 820.29 637.103C820.29 637.103 828.865 635.543 835.102 626.189C841.338 616.834 839.779 602.802 839.779 602.802L788.141 568.377C784.259 565.788 782.957 560.69 785.132 556.558L979.64 186.182C982.306 181.107 988.94 179.727 993.415 183.313L1037.73 218.892C1039.15 220.031 1041.18 219.945 1042.51 218.713C1076.09 187.772 1044.03 163.918 1044.03 163.918L961.398 105.451" stroke="#7C5527" stroke-width="3" stroke-miterlimit="10"/>
<path d="M861.414 471.049C860.479 473.691 858.249 475.313 856.417 474.666L856.183 474.572C854.531 473.793 853.899 471.244 854.788 468.726C855.723 466.083 857.953 464.461 859.785 465.108C861.609 465.748 862.342 468.414 861.414 471.049Z" stroke="#7C5527" stroke-width="3" stroke-miterlimit="10"/>
<path d="M859.785 465.108C857.953 464.461 855.723 466.083 854.788 468.726C853.899 471.244 854.53 473.793 856.183 474.572L848.621 471.548C846.797 470.908 846.064 468.242 846.992 465.607C847.927 462.965 850.157 461.343 851.989 461.99L859.785 465.108Z" stroke="#7C5527" stroke-width="3" stroke-miterlimit="10"/>
<path d="M875.445 466.371C874.51 469.014 872.28 470.636 870.448 469.988L870.215 469.895C868.562 469.115 867.93 466.566 868.819 464.048C869.755 461.406 871.984 459.784 873.816 460.431C875.64 461.07 876.373 463.736 875.445 466.371Z" stroke="#7C5527" stroke-width="3" stroke-miterlimit="10"/>
<path d="M873.816 460.431C871.984 459.784 869.754 461.406 868.819 464.048C867.93 466.566 868.562 469.115 870.214 469.895L862.652 466.87C860.828 466.231 860.096 463.565 861.023 460.93C861.959 458.287 864.188 456.666 866.02 457.313L873.816 460.431Z" stroke="#7C5527" stroke-width="3" stroke-miterlimit="10"/>
<path d="M889.477 461.694C888.541 464.337 886.312 465.958 884.48 465.311L884.246 465.218C882.593 464.438 881.962 461.889 882.85 459.371C883.786 456.728 886.015 455.107 887.847 455.754C889.672 456.393 890.404 459.059 889.477 461.694Z" stroke="#7C5527" stroke-width="3" stroke-miterlimit="10"/>
<path d="M887.847 455.754C886.015 455.107 883.786 456.728 882.85 459.371C881.961 461.889 882.593 464.438 884.245 465.218L876.684 462.193C874.86 461.554 874.127 458.888 875.054 456.253C875.99 453.61 878.219 451.988 880.051 452.635L887.847 455.754Z" stroke="#7C5527" stroke-width="3" stroke-miterlimit="10"/>
<path d="M903.51 457.017C902.574 459.659 900.345 461.281 898.513 460.634L898.279 460.54C896.626 459.761 895.995 457.212 896.884 454.694C897.819 452.051 900.049 450.429 901.881 451.076C903.705 451.716 904.438 454.382 903.51 457.017Z" stroke="#7C5527" stroke-width="3" stroke-miterlimit="10"/>
<path d="M901.88 451.076C900.048 450.429 897.819 452.051 896.883 454.694C895.995 457.211 896.626 459.761 898.279 460.54L890.717 457.516C888.893 456.876 888.16 454.21 889.088 451.575C890.023 448.933 892.253 447.311 894.085 447.958L901.88 451.076Z" stroke="#7C5527" stroke-width="3" stroke-miterlimit="10"/>
<path d="M917.541 452.339C916.878 454.202 915.577 455.559 914.22 455.964C913.659 456.144 913.082 456.144 912.544 455.956L912.31 455.863C910.658 455.083 910.026 452.534 910.915 450.016C911.85 447.373 914.08 445.752 915.912 446.399C916.933 446.758 917.611 447.748 917.853 449.018C918.032 450.016 917.946 451.186 917.541 452.339Z" stroke="#7C5527" stroke-width="3" stroke-miterlimit="10"/>
<path d="M915.911 446.399C914.08 445.752 911.85 447.373 910.914 450.016C910.026 452.534 910.657 455.083 912.31 455.863L904.748 452.838C902.924 452.199 902.191 449.533 903.119 446.898C904.054 444.255 906.284 442.634 908.116 443.281L915.911 446.399Z" stroke="#7C5527" stroke-width="3" stroke-miterlimit="10"/>
<path d="M871.547 450.78C870.611 453.423 868.382 455.044 866.55 454.397L866.316 454.304C864.663 453.524 864.032 450.975 864.921 448.457C865.856 445.814 868.086 444.193 869.918 444.84C871.742 445.479 872.475 448.145 871.547 450.78Z" stroke="#7C5527" stroke-width="3" stroke-miterlimit="10"/>
<path d="M869.917 444.84C868.085 444.193 865.856 445.814 864.92 448.457C864.032 450.975 864.663 453.524 866.316 454.304L858.754 451.279C856.93 450.64 856.197 447.974 857.125 445.339C858.06 442.696 860.29 441.075 862.122 441.722L869.917 444.84Z" stroke="#7C5527" stroke-width="3" stroke-miterlimit="10"/>
<path d="M885.58 446.103C884.645 448.745 882.415 450.367 880.583 449.72L880.349 449.626C878.697 448.847 878.065 446.298 878.954 443.78C879.889 441.137 882.119 439.516 883.951 440.163C885.775 440.802 886.508 443.468 885.58 446.103Z" stroke="#7C5527" stroke-width="3" stroke-miterlimit="10"/>
<path d="M883.951 440.163C882.119 439.516 879.889 441.137 878.954 443.78C878.065 446.298 878.696 448.847 880.349 449.626L872.787 446.602C870.963 445.962 870.23 443.296 871.158 440.661C872.093 438.019 874.323 436.397 876.155 437.044L883.951 440.163Z" stroke="#7C5527" stroke-width="3" stroke-miterlimit="10"/>
<path d="M899.611 441.425C898.676 444.068 896.446 445.69 894.614 445.043L894.381 444.949C892.728 444.169 892.096 441.62 892.985 439.102C893.921 436.46 896.15 434.838 897.982 435.485C899.806 436.124 900.539 438.791 899.611 441.425Z" stroke="#7C5527" stroke-width="3" stroke-miterlimit="10"/>
<path d="M897.982 435.485C896.15 434.838 893.92 436.46 892.985 439.102C892.096 441.62 892.728 444.169 894.38 444.949L886.818 441.924C884.994 441.285 884.262 438.619 885.189 435.984C886.125 433.341 888.354 431.72 890.186 432.367L897.982 435.485Z" stroke="#7C5527" stroke-width="3" stroke-miterlimit="10"/>
<path d="M913.645 436.748C912.709 439.391 910.48 441.012 908.648 440.365L908.414 440.272C906.761 439.492 906.13 436.943 907.018 434.425C907.954 431.782 910.183 430.161 912.015 430.808C913.84 431.447 914.572 434.113 913.645 436.748Z" stroke="#7C5527" stroke-width="3" stroke-miterlimit="10"/>
<path d="M912.015 430.808C910.183 430.161 907.953 431.782 907.018 434.425C906.129 436.943 906.761 439.492 908.413 440.272L900.852 437.247C899.028 436.608 898.295 433.942 899.222 431.307C900.158 428.664 902.387 427.043 904.219 427.69L912.015 430.808Z" stroke="#7C5527" stroke-width="3" stroke-miterlimit="10"/>
<path d="M928.073 429.483C928.112 430.301 927.988 431.19 927.676 432.071C927.115 433.661 926.086 434.877 924.955 435.446C924.207 435.844 923.412 435.945 922.679 435.688L922.445 435.594C920.792 434.815 920.161 432.266 921.05 429.748C921.985 427.105 924.215 425.483 926.047 426.13C927.255 426.559 927.995 427.877 928.073 429.483Z" stroke="#7C5527" stroke-width="3" stroke-miterlimit="10"/>
<path d="M926.046 426.13C924.214 425.483 921.985 427.105 921.049 429.748C920.161 432.266 920.792 434.815 922.445 435.594L914.883 432.57C913.059 431.93 912.326 429.264 913.254 426.629C914.189 423.987 916.419 422.365 918.251 423.012L926.046 426.13Z" stroke="#7C5527" stroke-width="3" stroke-miterlimit="10"/>
<path d="M881.682 430.512C880.746 433.154 878.517 434.776 876.685 434.129L876.451 434.035C874.798 433.256 874.167 430.706 875.055 428.189C875.991 425.546 878.22 423.924 880.052 424.571C881.877 425.211 882.609 427.877 881.682 430.512Z" stroke="#7C5527" stroke-width="3" stroke-miterlimit="10"/>
<path d="M880.052 424.571C878.22 423.924 875.991 425.546 875.055 428.189C874.166 430.706 874.798 433.256 876.451 434.035L868.889 431.011C867.065 430.371 866.332 427.705 867.26 425.07C868.195 422.428 870.425 420.806 872.257 421.453L880.052 424.571Z" stroke="#7C5527" stroke-width="3" stroke-miterlimit="10"/>
<path d="M895.713 425.834C894.777 428.477 892.548 430.098 890.716 429.451L890.482 429.358C888.829 428.578 888.198 426.029 889.087 423.511C890.022 420.868 892.252 419.247 894.084 419.894C895.908 420.533 896.641 423.199 895.713 425.834Z" stroke="#7C5527" stroke-width="3" stroke-miterlimit="10"/>
<path d="M894.083 419.894C892.251 419.247 890.022 420.868 889.086 423.511C888.198 426.029 888.829 428.578 890.482 429.358L882.92 426.333C881.096 425.694 880.363 423.028 881.291 420.393C882.226 417.75 884.456 416.129 886.288 416.776L894.083 419.894Z" stroke="#7C5527" stroke-width="3" stroke-miterlimit="10"/>
<path d="M909.746 421.157C908.811 423.8 906.581 425.421 904.749 424.774L904.515 424.681C902.863 423.901 902.231 421.352 903.12 418.834C904.055 416.191 906.285 414.57 908.117 415.217C909.941 415.856 910.674 418.522 909.746 421.157Z" stroke="#7C5527" stroke-width="3" stroke-miterlimit="10"/>
<path d="M908.117 415.217C906.285 414.57 904.055 416.191 903.12 418.834C902.231 421.352 902.862 423.901 904.515 424.681L896.953 421.656C895.129 421.017 894.396 418.35 895.324 415.716C896.259 413.073 898.489 411.451 900.321 412.098L908.117 415.217Z" stroke="#7C5527" stroke-width="3" stroke-miterlimit="10"/>
<path d="M923.777 416.48C922.842 419.122 920.612 420.744 918.78 420.097L918.547 420.003C916.894 419.224 916.262 416.674 917.151 414.156C918.087 411.514 920.316 409.892 922.148 410.539C923.972 411.179 924.705 413.845 923.777 416.48Z" stroke="#7C5527" stroke-width="3" stroke-miterlimit="10"/>
<path d="M922.148 410.539C920.316 409.892 918.086 411.514 917.151 414.156C916.262 416.674 916.894 419.224 918.546 420.003L910.984 416.978C909.16 416.339 908.428 413.673 909.355 411.038C910.291 408.395 912.52 406.774 914.352 407.421L922.148 410.539Z" stroke="#7C5527" stroke-width="3" stroke-miterlimit="10"/>
<path d="M938.185 410.157C938.185 410.157 938.185 410.165 938.185 410.173C938.13 410.711 938.013 411.256 937.818 411.802C937.382 413.049 936.649 414.071 935.807 414.726C934.872 415.466 933.788 415.762 932.821 415.419L932.588 415.326C930.935 414.546 930.303 411.997 931.192 409.479C932.128 406.836 934.357 405.215 936.189 405.862C937.631 406.369 938.387 408.138 938.193 410.157H938.185Z" stroke="#7C5527" stroke-width="3" stroke-miterlimit="10"/>
<path d="M936.181 405.862C934.349 405.215 932.119 406.836 931.184 409.479C930.295 411.997 930.927 414.546 932.579 415.326L925.018 412.301C923.194 411.662 922.461 408.996 923.388 406.361C924.324 403.718 926.553 402.097 928.385 402.744L936.181 405.862Z" stroke="#7C5527" stroke-width="3" stroke-miterlimit="10"/>
<path d="M893.375 410.243C892.44 412.886 890.21 414.507 888.378 413.86L888.144 413.767C886.492 412.987 885.86 410.438 886.749 407.92C887.684 405.277 889.914 403.656 891.746 404.303C893.57 404.942 894.303 407.608 893.375 410.243Z" stroke="#7C5527" stroke-width="3" stroke-miterlimit="10"/>
<path d="M891.745 404.303C889.914 403.656 887.684 405.277 886.748 407.92C885.86 410.438 886.491 412.987 888.144 413.767L880.582 410.742C878.758 410.103 878.025 407.437 878.953 404.802C879.888 402.159 882.118 400.538 883.95 401.185L891.745 404.303Z" stroke="#7C5527" stroke-width="3" stroke-miterlimit="10"/>
<path d="M907.406 405.566C906.471 408.208 904.241 409.83 902.409 409.183L902.176 409.089C900.523 408.31 899.891 405.761 900.78 403.243C901.716 400.6 903.945 398.978 905.777 399.625C907.601 400.265 908.334 402.931 907.406 405.566Z" stroke="#7C5527" stroke-width="3" stroke-miterlimit="10"/>
<path d="M905.777 399.625C903.945 398.978 901.715 400.6 900.78 403.243C899.891 405.761 900.523 408.31 902.175 409.089L894.613 406.065C892.789 405.425 892.056 402.759 892.984 400.124C893.92 397.482 896.149 395.86 897.981 396.507L905.777 399.625Z" stroke="#7C5527" stroke-width="3" stroke-miterlimit="10"/>
<path d="M921.44 400.888C920.504 403.531 918.274 405.153 916.443 404.506L916.209 404.412C914.556 403.632 913.925 401.083 914.813 398.565C915.749 395.923 917.978 394.301 919.81 394.948C921.634 395.587 922.367 398.253 921.44 400.888Z" stroke="#7C5527" stroke-width="3" stroke-miterlimit="10"/>
<path d="M919.81 394.948C917.978 394.301 915.748 395.923 914.813 398.565C913.924 401.083 914.556 403.632 916.208 404.412L908.647 401.387C906.822 400.748 906.09 398.082 907.017 395.447C907.953 392.804 910.182 391.183 912.014 391.83L919.81 394.948Z" stroke="#7C5527" stroke-width="3" stroke-miterlimit="10"/>
<path d="M935.471 396.211C934.535 398.854 932.306 400.475 930.474 399.828L930.24 399.735C928.587 398.955 927.956 396.406 928.845 393.888C929.78 391.245 932.01 389.624 933.842 390.271C935.666 390.91 936.398 393.576 935.471 396.211Z" stroke="#7C5527" stroke-width="3" stroke-miterlimit="10"/>
<path d="M933.841 390.271C932.009 389.624 929.78 391.245 928.844 393.888C927.955 396.406 928.587 398.955 930.24 399.735L922.678 396.71C920.854 396.071 920.121 393.405 921.049 390.77C921.984 388.127 924.214 386.505 926.046 387.153L933.841 390.271Z" stroke="#7C5527" stroke-width="3" stroke-miterlimit="10"/>
<path d="M949.504 391.534C948.818 393.475 947.43 394.862 946.019 395.205C945.513 395.338 944.998 395.322 944.507 395.151L944.273 395.057C942.62 394.278 941.989 391.729 942.878 389.211C943.813 386.568 946.043 384.946 947.875 385.593C948.849 385.936 949.512 386.848 949.777 388.026C950.011 389.07 949.933 390.302 949.504 391.534Z" stroke="#7C5527" stroke-width="3" stroke-miterlimit="10"/>
<path d="M947.874 385.593C946.042 384.946 943.813 386.568 942.877 389.211C941.989 391.729 942.62 394.278 944.273 395.057L936.711 392.033C934.887 391.393 934.154 388.727 935.082 386.092C936.017 383.45 938.247 381.828 940.079 382.475L947.874 385.593Z" stroke="#7C5527" stroke-width="3" stroke-miterlimit="10"/>
<path d="M903.51 390.754C902.574 393.397 900.345 395.018 898.513 394.371L898.279 394.278C896.626 393.498 895.995 390.949 896.884 388.431C897.819 385.788 900.049 384.167 901.881 384.814C903.705 385.453 904.438 388.119 903.51 390.754Z" stroke="#7C5527" stroke-width="3" stroke-miterlimit="10"/>
<path d="M901.88 384.814C900.048 384.167 897.819 385.788 896.883 388.431C895.995 390.949 896.626 393.498 898.279 394.278L890.717 391.253C888.893 390.614 888.16 387.948 889.088 385.313C890.023 382.67 892.253 381.049 894.085 381.696L901.88 384.814Z" stroke="#7C5527" stroke-width="3" stroke-miterlimit="10"/>
<path d="M917.541 386.077C916.606 388.719 914.376 390.341 912.544 389.694L912.31 389.6C910.658 388.821 910.026 386.272 910.915 383.754C911.85 381.111 914.08 379.489 915.912 380.136C917.736 380.776 918.469 383.442 917.541 386.077Z" stroke="#7C5527" stroke-width="3" stroke-miterlimit="10"/>
<path d="M915.911 380.136C914.08 379.489 911.85 381.111 910.914 383.754C910.026 386.272 910.657 388.821 912.31 389.6L904.748 386.576C902.924 385.936 902.191 383.27 903.119 380.635C904.054 377.993 906.284 376.371 908.116 377.018L915.911 380.136Z" stroke="#7C5527" stroke-width="3" stroke-miterlimit="10"/>
<path d="M931.574 381.399C930.639 384.042 928.409 385.664 926.577 385.017L926.343 384.923C924.691 384.143 924.059 381.594 924.948 379.076C925.884 376.434 928.113 374.812 929.945 375.459C931.769 376.098 932.502 378.764 931.574 381.399Z" stroke="#7C5527" stroke-width="3" stroke-miterlimit="10"/>
<path d="M929.945 375.459C928.113 374.812 925.883 376.434 924.948 379.076C924.059 381.594 924.69 384.143 926.343 384.923L918.781 381.898C916.957 381.259 916.224 378.593 917.152 375.958C918.088 373.315 920.317 371.694 922.149 372.341L929.945 375.459Z" stroke="#7C5527" stroke-width="3" stroke-miterlimit="10"/>
<path d="M945.606 376.722C944.67 379.365 942.44 380.986 940.609 380.339L940.375 380.246C938.722 379.466 938.091 376.917 938.979 374.399C939.915 371.756 942.144 370.135 943.976 370.782C945.8 371.421 946.533 374.087 945.606 376.722Z" stroke="#7C5527" stroke-width="3" stroke-miterlimit="10"/>
<path d="M943.976 370.782C942.144 370.135 939.914 371.756 938.979 374.399C938.09 376.917 938.722 379.466 940.374 380.246L932.813 377.221C930.988 376.582 930.256 373.916 931.183 371.281C932.119 368.638 934.348 367.016 936.18 367.664L943.976 370.782Z" stroke="#7C5527" stroke-width="3" stroke-miterlimit="10"/>
<path d="M959.637 372.045C958.966 373.955 957.61 375.327 956.222 375.693C955.692 375.849 955.146 375.841 954.64 375.662L954.406 375.568C952.753 374.789 952.122 372.24 953.011 369.722C953.946 367.079 956.176 365.457 958.008 366.104C958.998 366.455 959.676 367.406 959.925 368.622C960.136 369.644 960.058 370.844 959.637 372.045Z" stroke="#7C5527" stroke-width="3" stroke-miterlimit="10"/>
<path d="M958.007 366.104C956.175 365.457 953.946 367.079 953.01 369.722C952.122 372.24 952.753 374.789 954.406 375.568L946.844 372.544C945.02 371.904 944.287 369.238 945.215 366.603C946.15 363.961 948.38 362.339 950.212 362.986L958.007 366.104Z" stroke="#7C5527" stroke-width="3" stroke-miterlimit="10"/>
<path d="M913.645 371.265C912.709 373.908 910.48 375.529 908.648 374.882L908.414 374.789C906.761 374.009 906.13 371.46 907.018 368.942C907.954 366.299 910.183 364.678 912.015 365.325C913.84 365.964 914.572 368.63 913.645 371.265Z" stroke="#7C5527" stroke-width="3" stroke-miterlimit="10"/>
<path d="M912.015 365.325C910.183 364.678 907.953 366.299 907.018 368.942C906.129 371.46 906.761 374.009 908.413 374.789L900.852 371.764C899.028 371.125 898.295 368.459 899.222 365.824C900.158 363.181 902.387 361.56 904.219 362.207L912.015 365.325Z" stroke="#7C5527" stroke-width="3" stroke-miterlimit="10"/>
<path d="M927.676 366.588C926.74 369.23 924.511 370.852 922.679 370.205L922.445 370.111C920.792 369.332 920.161 366.783 921.05 364.265C921.985 361.622 924.215 360 926.047 360.647C927.871 361.287 928.604 363.953 927.676 366.588Z" stroke="#7C5527" stroke-width="3" stroke-miterlimit="10"/>
<path d="M926.046 360.647C924.214 360 921.985 361.622 921.049 364.265C920.161 366.783 920.792 369.332 922.445 370.111L914.883 367.087C913.059 366.447 912.326 363.781 913.254 361.146C914.189 358.504 916.419 356.882 918.251 357.529L926.046 360.647Z" stroke="#7C5527" stroke-width="3" stroke-miterlimit="10"/>
<path d="M941.707 361.91C940.772 364.553 938.542 366.175 936.71 365.528L936.476 365.434C934.824 364.654 934.192 362.105 935.081 359.587C936.016 356.945 938.246 355.323 940.078 355.97C941.902 356.609 942.635 359.275 941.707 361.91Z" stroke="#7C5527" stroke-width="3" stroke-miterlimit="10"/>
<path d="M940.078 355.97C938.246 355.323 936.016 356.945 935.081 359.587C934.192 362.105 934.823 364.654 936.476 365.434L928.914 362.409C927.09 361.77 926.357 359.104 927.285 356.469C928.22 353.826 930.45 352.205 932.282 352.852L940.078 355.97Z" stroke="#7C5527" stroke-width="3" stroke-miterlimit="10"/>
<path d="M955.74 357.233C954.805 359.876 952.575 361.497 950.743 360.85L950.509 360.757C948.857 359.977 948.225 357.428 949.114 354.91C950.05 352.267 952.279 350.646 954.111 351.293C955.935 351.932 956.668 354.598 955.74 357.233Z" stroke="#7C5527" stroke-width="3" stroke-miterlimit="10"/>
<path d="M954.111 351.293C952.279 350.646 950.049 352.267 949.114 354.91C948.225 357.428 948.856 359.977 950.509 360.757L942.947 357.732C941.123 357.093 940.39 354.427 941.318 351.792C942.254 349.149 944.483 347.528 946.315 348.175L954.111 351.293Z" stroke="#7C5527" stroke-width="3" stroke-miterlimit="10"/>
<path d="M969.772 352.556C969.109 354.427 967.799 355.783 966.435 356.181C965.882 356.36 965.312 356.36 964.775 356.173L964.541 356.079C962.888 355.3 962.257 352.751 963.145 350.233C964.081 347.59 966.31 345.968 968.142 346.615C969.156 346.974 969.842 347.956 970.076 349.219C970.27 350.217 970.185 351.386 969.772 352.556Z" stroke="#7C5527" stroke-width="3" stroke-miterlimit="10"/>
<path d="M968.142 346.615C966.31 345.968 964.08 347.59 963.145 350.233C962.256 352.751 962.888 355.3 964.54 356.079L956.979 353.055C955.154 352.415 954.422 349.749 955.349 347.114C956.285 344.472 958.514 342.85 960.346 343.497L968.142 346.615Z" stroke="#7C5527" stroke-width="3" stroke-miterlimit="10"/>
<path d="M923.777 351.776C922.842 354.419 920.612 356.04 918.78 355.393L918.547 355.3C916.894 354.52 916.262 351.971 917.151 349.453C918.087 346.81 920.316 345.189 922.148 345.836C923.972 346.475 924.705 349.141 923.777 351.776Z" stroke="#7C5527" stroke-width="3" stroke-miterlimit="10"/>
<path d="M922.148 345.836C920.316 345.189 918.086 346.81 917.151 349.453C916.262 351.971 916.894 354.52 918.546 355.3L910.984 352.275C909.16 351.636 908.428 348.97 909.355 346.335C910.291 343.692 912.52 342.071 914.352 342.718L922.148 345.836Z" stroke="#7C5527" stroke-width="3" stroke-miterlimit="10"/>
<path d="M937.811 347.099C936.875 349.741 934.646 351.363 932.814 350.716L932.58 350.622C930.927 349.843 930.296 347.294 931.184 344.776C932.12 342.133 934.349 340.511 936.181 341.159C938.006 341.798 938.738 344.464 937.811 347.099Z" stroke="#7C5527" stroke-width="3" stroke-miterlimit="10"/>
<path d="M936.181 341.159C934.349 340.511 932.119 342.133 931.184 344.776C930.295 347.294 930.927 349.843 932.579 350.622L925.018 347.598C923.194 346.958 922.461 344.292 923.388 341.657C924.324 339.015 926.553 337.393 928.385 338.04L936.181 341.159Z" stroke="#7C5527" stroke-width="3" stroke-miterlimit="10"/>
<path d="M951.842 342.421C950.906 345.064 948.677 346.686 946.845 346.039L946.611 345.945C944.958 345.165 944.327 342.616 945.216 340.098C946.151 337.456 948.381 335.834 950.213 336.481C952.037 337.12 952.77 339.786 951.842 342.421Z" stroke="#7C5527" stroke-width="3" stroke-miterlimit="10"/>
<path d="M950.212 336.481C948.38 335.834 946.151 337.456 945.215 340.098C944.327 342.616 944.958 345.165 946.611 345.945L939.049 342.92C937.225 342.281 936.492 339.615 937.42 336.98C938.355 334.337 940.585 332.716 942.417 333.363L950.212 336.481Z" stroke="#7C5527" stroke-width="3" stroke-miterlimit="10"/>
<path d="M965.875 337.744C964.94 340.387 962.71 342.008 960.878 341.361L960.644 341.268C958.992 340.488 958.36 337.939 959.249 335.421C960.184 332.778 962.414 331.157 964.246 331.804C966.07 332.443 966.803 335.109 965.875 337.744Z" stroke="#7C5527" stroke-width="3" stroke-miterlimit="10"/>
<path d="M964.245 331.804C962.414 331.157 960.184 332.778 959.248 335.421C958.36 337.939 958.991 340.488 960.644 341.268L953.082 338.243C951.258 337.604 950.525 334.938 951.453 332.303C952.388 329.66 954.618 328.039 956.45 328.686L964.245 331.804Z" stroke="#7C5527" stroke-width="3" stroke-miterlimit="10"/>
<path d="M979.906 333.067C979.259 334.906 977.981 336.247 976.648 336.668C976.063 336.871 975.471 336.879 974.909 336.684L974.676 336.59C973.023 335.811 972.391 333.262 973.28 330.744C974.216 328.101 976.445 326.479 978.277 327.126C979.322 327.493 980.008 328.514 980.234 329.824C980.397 330.806 980.304 331.936 979.906 333.067Z" stroke="#7C5527" stroke-width="3" stroke-miterlimit="10"/>
<path d="M978.277 327.126C976.445 326.479 974.215 328.101 973.28 330.744C972.391 333.262 973.023 335.811 974.675 336.59L967.113 333.566C965.289 332.926 964.556 330.26 965.484 327.625C966.42 324.983 968.649 323.361 970.481 324.008L978.277 327.126Z" stroke="#7C5527" stroke-width="3" stroke-miterlimit="10"/>
<path d="M933.912 332.287C932.977 334.93 930.747 336.551 928.915 335.904L928.681 335.811C927.029 335.031 926.397 332.482 927.286 329.964C928.221 327.321 930.451 325.7 932.283 326.347C934.107 326.986 934.84 329.652 933.912 332.287Z" stroke="#7C5527" stroke-width="3" stroke-miterlimit="10"/>
<path d="M932.283 326.347C930.451 325.7 928.221 327.321 927.286 329.964C926.397 332.482 927.028 335.031 928.681 335.811L921.119 332.786C919.295 332.147 918.562 329.481 919.49 326.846C920.425 324.203 922.655 322.582 924.487 323.229L932.283 326.347Z" stroke="#7C5527" stroke-width="3" stroke-miterlimit="10"/>
<path d="M947.943 327.61C947.008 330.252 944.778 331.874 942.946 331.227L942.713 331.133C941.06 330.354 940.428 327.805 941.317 325.287C942.253 322.644 944.482 321.022 946.314 321.67C948.138 322.309 948.871 324.975 947.943 327.61Z" stroke="#7C5527" stroke-width="3" stroke-miterlimit="10"/>
<path d="M946.314 321.67C944.482 321.022 942.252 322.644 941.317 325.287C940.428 327.805 941.06 330.354 942.712 331.133L935.15 328.109C933.326 327.469 932.594 324.803 933.521 322.168C934.457 319.526 936.686 317.904 938.518 318.551L946.314 321.67Z" stroke="#7C5527" stroke-width="3" stroke-miterlimit="10"/>
<path d="M961.977 322.932C961.041 325.575 958.812 327.197 956.98 326.55L956.746 326.456C955.093 325.676 954.462 323.127 955.35 320.609C956.286 317.967 958.515 316.345 960.347 316.992C962.172 317.631 962.904 320.298 961.977 322.932Z" stroke="#7C5527" stroke-width="3" stroke-miterlimit="10"/>
<path d="M960.347 316.992C958.515 316.345 956.286 317.967 955.35 320.609C954.461 323.127 955.093 325.676 956.745 326.456L949.184 323.431C947.36 322.792 946.627 320.126 947.554 317.491C948.49 314.848 950.719 313.227 952.551 313.874L960.347 316.992Z" stroke="#7C5527" stroke-width="3" stroke-miterlimit="10"/>
<path d="M976.008 318.255C975.072 320.898 972.843 322.519 971.011 321.872L970.777 321.779C969.124 320.999 968.493 318.45 969.382 315.932C970.317 313.289 972.547 311.668 974.379 312.315C976.203 312.954 976.936 315.62 976.008 318.255Z" stroke="#7C5527" stroke-width="3" stroke-miterlimit="10"/>
<path d="M974.378 312.315C972.546 311.668 970.317 313.289 969.381 315.932C968.493 318.45 969.124 320.999 970.777 321.779L963.215 318.754C961.391 318.115 960.658 315.449 961.586 312.814C962.521 310.171 964.751 308.55 966.583 309.197L974.378 312.315Z" stroke="#7C5527" stroke-width="3" stroke-miterlimit="10"/>
<path d="M990.041 313.578C989.402 315.378 988.162 316.704 986.861 317.156C986.252 317.374 985.629 317.398 985.044 317.195L984.81 317.101C983.158 316.322 982.526 313.773 983.415 311.255C984.35 308.612 986.58 306.99 988.412 307.637C989.48 308.012 990.181 309.087 990.384 310.444C990.524 311.395 990.423 312.486 990.041 313.578Z" stroke="#7C5527" stroke-width="3" stroke-miterlimit="10"/>
<path d="M988.411 307.637C986.58 306.99 984.35 308.612 983.414 311.255C982.526 313.773 983.157 316.322 984.81 317.101L977.248 314.077C975.424 313.437 974.691 310.771 975.619 308.136C976.554 305.494 978.784 303.872 980.616 304.519L988.411 307.637Z" stroke="#7C5527" stroke-width="3" stroke-miterlimit="10"/>
<path d="M856.416 474.666L856.182 474.572" stroke="#7C5527" stroke-width="3" stroke-miterlimit="10"/>
<path d="M956.089 102.933C956.089 102.933 966.84 107.782 959.044 125.712C951.248 143.642 727.515 570.061 727.515 570.061C727.515 570.061 721.279 585.652 701.01 577.077C688.693 571.869 678.972 568.961 673.234 567.48C672.587 567.316 672.275 568.236 672.883 568.501L706.677 583.118C717.1 587.624 729.23 583.313 734.469 573.241L966.551 127.092C971.517 117.542 966.45 105.841 956.082 102.941L937.209 97.6554" stroke="#7C5527" stroke-width="3" stroke-miterlimit="10"/>
<path d="M463.783 21.7887V13.8839C463.783 10.9918 466.379 8.78563 469.232 9.25336L548.857 22.3188C561.899 24.4626 572.002 34.8853 573.732 47.9897L640.447 554.025C640.447 554.025 640.954 568.112 628.496 568.696" stroke="#7C5527" stroke-width="3" stroke-miterlimit="10"/>
<path d="M625.402 570.84C648.788 568.501 646.45 552.131 646.45 552.131L609.14 43.2811C608.165 29.9585 598.047 19.1148 584.833 17.2127L503.135 5.44911C500.929 5.12949 498.957 6.84452 498.957 9.06626V14.1412" stroke="#7C5527" stroke-width="3" stroke-miterlimit="10"/>
<path d="M532.447 9.191V5.26202C532.447 3.33651 534.155 1.85535 536.064 2.1204L623.32 14.414C635.224 16.0901 644.143 26.162 644.376 38.175L654.246 551.297C654.246 551.297 654.246 564.596 646.458 566.56L634.928 568.696" stroke="#7C5527" stroke-width="3" stroke-miterlimit="10"/>
<path d="M565.414 5.40234L565.391 2.50238C565.391 1.69164 566.092 1.06799 566.895 1.17713L656.981 13.1434C668.269 14.6401 676.587 24.4392 676.244 35.8207L660.489 549.776C660.489 549.776 659.702 561.937 649.185 565.212" stroke="#7C5527" stroke-width="3" stroke-miterlimit="10"/>
<path d="M598.67 5.40235V3.42227C598.67 2.71287 599.294 2.17498 599.995 2.26852L694.298 15.2638C705.914 16.8619 714.224 27.308 713.172 38.9858L667.489 547.445C667.489 547.445 667.489 563.037 654.237 564.596" stroke="#7C5527" stroke-width="3" stroke-miterlimit="10"/>
<path d="M686.387 14.1802L728.951 19.3564C741.003 20.822 749.484 31.9074 747.762 43.9204L675.294 547.445C675.294 547.445 672.955 567.714 654.246 564.596L648.602 565.633" stroke="#7C5527" stroke-width="3" stroke-miterlimit="10"/>
<path d="M736.622 21.7965L762.994 25.1954C775.849 26.8558 784.604 39.0559 782.055 51.7627L682.31 549.005C682.31 549.005 677.36 565.843 665.807 565.219L655.977 564.822" stroke="#7C5527" stroke-width="3" stroke-miterlimit="10"/>
<path d="M772.739 29.0464L791.854 31.767C806.689 34.0667 816.332 48.6367 812.652 63.1989L688.554 553.69C688.554 553.69 682.318 568.501 669.845 566.942C657.372 565.383 652.352 564.861 652.352 564.861" stroke="#7C5527" stroke-width="3" stroke-miterlimit="10"/>
<path d="M807.249 40.3266L829.513 43.0862C842.586 44.7077 851.014 57.7498 847.124 70.3318L697.121 555.249C697.121 555.249 691.235 570.294 676.252 567.059" stroke="#7C5527" stroke-width="3" stroke-miterlimit="10"/>
<path d="M844.395 52.1837L864.484 55.2396C873.503 56.6116 879.038 65.865 875.99 74.4557L704.136 558.359C704.136 558.359 695.779 572.789 683.197 568.688" stroke="#7C5527" stroke-width="3" stroke-miterlimit="10"/>
<path d="M876.833 65.7246L894.404 69.0378C904.422 70.9243 910.167 81.5497 906.261 90.959L711.145 561.478C711.145 561.478 698.673 576.289 690.877 573.171" stroke="#7C5527" stroke-width="3" stroke-miterlimit="10"/>
<path d="M907.493 82.2981L928.042 87.0612C935.963 88.8931 940.157 97.5774 936.664 104.921L717.982 565.227C717.982 565.227 710.826 580.015 694.611 573.483" stroke="#7C5527" stroke-width="3" stroke-miterlimit="10"/>
<path d="M258.182 324.686L155.779 354.123L160.87 371.273L264.465 340.098L258.182 324.686Z" fill="#7C5527"/>
<path d="M264.465 376.028L172.867 403.625L178.153 421.944L277.687 389.982H274.6L267.381 383.122L264.465 376.028Z" fill="#7C5527"/>
<path d="M286.051 410.072L184.561 440.264L188.521 456.276L293.699 426.232L292.14 417.657L286.051 410.072Z" fill="#7C5527"/>
<path d="M305.143 457.71L200.932 488.597L205.999 505.56L310.647 473.52L305.143 457.71Z" fill="#7C5527"/>
<path d="M317.702 493.788L212.625 525.236L216.523 540.827L322.995 509.005L317.702 493.788Z" fill="#7C5527"/>
<path d="M330.26 529.866L224.318 560.316L230.555 578.246L335.632 545.302" fill="#7C5527"/>
</g>
</g>
<defs>
<clipPath id="clip0_150_1550">
<rect width="1059" height="659.421" fill="white"/>
</clipPath>
</defs>
</svg>
