<svg width="51" height="101" viewBox="0 0 51 101" fill="none" xmlns="http://www.w3.org/2000/svg">
<path d="M47.3 80.5C47.1 80.5 47 80.6 46.8 80.6V51V38.2V36.2H47.7V80.4L47.3 80.5ZM49.3 80.8C49.6 80.9 49.9 80.9 50.2 80.9V81.4H3.3V80.9C3.6 80.9 3.9 80.9 4.2 80.8C4.8 80.7 5.5 80.7 6.1 80.8C6.8 81 7.4 81 8.1 80.8C8.7 80.7 9.4 80.7 10 80.8C10.7 81 11.3 81 12 80.8C12.6 80.7 13.3 80.7 13.9 80.8C14.6 81 15.2 81 15.9 80.8C16.5 80.7 17.2 80.7 17.8 80.8C18.5 81 19.1 81 19.8 80.8C20.4 80.7 21.1 80.7 21.7 80.8C22.4 81 23 81 23.7 80.8C24 80.7 24.4 80.7 24.7 80.7C25 80.7 25.3 80.7 25.7 80.8C26.4 81 27 81 27.7 80.8C28 80.7 28.4 80.7 28.7 80.7C29 80.7 29.3 80.7 29.7 80.8C30.4 81 31 81 31.7 80.8C32 80.7 32.3 80.7 32.7 80.7C33 80.7 33.3 80.7 33.6 80.8C34.3 81 35 81 35.6 80.8C36.2 80.7 36.9 80.7 37.5 80.8C38.2 81 38.8 81 39.5 80.8C40.1 80.7 40.8 80.7 41.4 80.8C42.1 81 42.7 81 43.4 80.8C43.7 80.7 44.1 80.7 44.4 80.7C44.7 80.7 45 80.7 45.3 80.8C45.6 80.9 46 80.9 46.3 80.9C46.6 80.9 47 80.9 47.3 80.8C47.9 80.7 48.6 80.7 49.3 80.8ZM47.6 86.7V99.4H46.6V85L48.2 81.8H49.6C48.5 82.6 47.5 84.7 47.6 86.7ZM6.4 99.4H5.4V86.7C5.4 84.7 4.5 82.5 3.4 81.8H4.8L6.4 85V99.4ZM22.4 98.4H30.5V100.6H22.4V98.4ZM15.2 81.8C15.7 81.8 16.2 82.4 16.7 83.2H5.8L5.2 81.8H15.2ZM19.2 100.4C18.9 100.5 18.6 100.6 18.3 100.6V86.8C18.3 84.9 17.6 83.1 16.3 81.8H17.7L19.3 85L19.2 100.4ZM34.8 83.2H18.6L17.9 81.8H35.4L34.8 83.2ZM34.2 85L35.8 81.8H37.2C35.9 83.1 35.2 84.9 35.2 86.8V100.6C34.9 100.5 34.6 100.5 34.3 100.4L34.2 85ZM48 81.8L47.3 83.2H36.4C36.9 82.4 37.4 81.8 37.9 81.8H48ZM35.8 84.8C35.9 84.4 36.1 83.9 36.3 83.5H47.2L46.6 84.8H35.8ZM46.5 88.8H35.5V87.9H46.5V88.8ZM46.5 99.4H35.5V90.5H46.5V99.4ZM35.5 89.1H46.5V90.2H35.5V89.1ZM31.1 99.1C31.9 99.9 32.9 100.4 33.9 100.6H31.1V99.1ZM22.3 99.1V100.6H19.5C20.6 100.4 21.6 99.8 22.3 99.1ZM34 84.8H19.4L18.8 83.5H34.6L34 84.8ZM30.8 98.1H22.7V87.9H30.8V98.1ZM33.9 100.3C32.7 99.9 31.2 99.3 31.1 98.4V87.9H33.9V100.3ZM22.3 98.4C22.2 99.3 20.7 100 19.5 100.3V87.9H22.3V98.4ZM18 88.8H7V87.9H18V88.8ZM18 90.2H7V89.1H18V90.2ZM18 99.4H7V90.5H18V99.4ZM17.2 83.5C17.4 83.9 17.6 84.4 17.7 84.8H6.9L6.3 83.5H17.2ZM7 99.7H18V100.6H7V99.7ZM5.7 99.7H6.7V100.6H5.7V99.7ZM46.5 100.6H35.5V99.7H46.5V100.6ZM46.8 99.7H47.8V100.6H46.8V99.7ZM5.7 36.3H6.6V38.3V51V80.6C6.4 80.6 6.3 80.6 6.1 80.5L5.7 80.4V36.3ZM5.2 67.7C4.6 68.4 3.9 69 3.1 69.5V66.7C3.6 66.8 4.1 66.9 4.6 67L5.4 67.2V67.6L5.2 67.7ZM0.2 67.3C0.6 67.2 0.9 67.1 1.3 67C1.8 66.9 2.3 66.8 2.7 66.7V69.5C1.8 68.9 0.9 68.2 0.2 67.3ZM1.4 15.4C1.8 15.1 2.3 14.9 2.8 14.8V24.3C2.3 24.4 1.8 24.5 1.3 24.6C0.9 24.7 0.5 24.8 0.2 24.9V16C0.6 15.8 1 15.6 1.4 15.4ZM4.5 15.4C4.9 15.6 5.3 15.8 5.8 16V24.9C5.4 24.8 5 24.7 4.7 24.6C4.2 24.5 3.7 24.3 3.2 24.3V14.8C3.6 14.9 4 15.1 4.5 15.4ZM5.3 26V32.1H3V24.7C3.5 24.8 4 24.9 4.5 25C4.9 25.1 5.3 25.2 5.7 25.3V26.1L5.3 26ZM18 28.1H5.7V26.3H18V28.1ZM18.3 25.1H35.2V25.9H18.3V25.1ZM24.1 9.4H29.3C32.9 11.1 35.1 16.1 35.1 19.9C33.6 13.2 26.9 10.5 26.7 10.4H26.6C26.3 10.5 19.8 13.2 18.2 19.9C18.3 16.1 20.4 11.1 24.1 9.4ZM24.2 7.8H29.2V9.1H24.2V7.8ZM26.7 13.6C23.9 13.6 21.3 14.9 19.6 17.2C21.2 14.4 23.7 12.1 26.7 10.8C29.7 12.1 32.2 14.3 33.8 17.2C32.1 14.9 29.5 13.6 26.7 13.6ZM33.7 22.3C33.3 18.5 29.9 15.6 26.1 16C22.7 16.3 20.1 19 19.8 22.3V24.9H18.3V22.4V22.2C18.3 21.6 18.4 21.1 18.5 20.5C19.6 16 24.1 13.2 28.6 14.3C31.7 15 34.1 17.4 34.8 20.5C34.9 21.1 35 21.6 35 22.2V22.4V25H33.6V23.8L33.7 22.3ZM30.5 22.6H33.4V24.8H30.5V22.6ZM28.1 22.6H30.2V24.8H28.1V22.6ZM25.7 22.6H27.8V24.8H25.7V22.6ZM23.2 22.6H25.3V24.8H23.2V22.6ZM20 23.6V22.6H22.9V24.8H20V23.6ZM20.4 20.1H22.9V22.3H20C20.1 21.6 20.2 20.8 20.4 20.1ZM22.1 17.6H23V19.8H20.6C20.9 19 21.4 18.2 22.1 17.6ZM22.9 17.3H22.4L22.9 16.9V17.3ZM25.4 17.3H23.2V16.7C23.9 16.3 24.6 16 25.3 15.9L25.4 17.3ZM30.2 17.3H28.1V15.8C28.9 15.9 29.6 16.2 30.2 16.6V17.3ZM30.5 17.3V16.9L31 17.3H30.5ZM30.5 19.8V17.5H31.4C32.1 18.1 32.6 18.9 32.9 19.7L30.5 19.8ZM30.5 22.4V20.1H33C33.3 20.8 33.4 21.6 33.4 22.3L30.5 22.4ZM28.1 20.1H30.2V22.3H28.1V20.1ZM25.7 20.1H27.8V22.3H25.7V20.1ZM25.4 22.4H23.2V20.1H25.3L25.4 22.4ZM25.4 19.8H23.2V17.5H25.3L25.4 19.8ZM27.8 19.8H25.7V17.5H27.8V19.8ZM28.1 17.6H30.2V19.8H28.1V17.6ZM26.7 15.7C27.1 15.7 27.4 15.7 27.8 15.8V17.3H25.7V15.8C26 15.7 26.4 15.6 26.7 15.7ZM47.8 26.3V28.2H35.4V26.3H47.8ZM46.9 28.5H47.8V32.1H46.9V28.5ZM50.3 33.3H35.4V32.4H50.3V33.3ZM41.2 75.9H46.6V80.7H46.4C46.1 80.7 45.8 80.7 45.5 80.6C44.8 80.4 44.2 80.4 43.5 80.6C43.2 80.7 42.9 80.7 42.5 80.7C42.2 80.7 41.9 80.7 41.6 80.6L41.2 80.5V75.9ZM34.9 75.9H40.9V80.5H40.5C40.2 80.5 39.8 80.5 39.5 80.6C38.9 80.8 38.2 80.8 37.6 80.6C36.9 80.4 36.3 80.4 35.6 80.6C35.4 80.7 35.1 80.7 34.9 80.7V75.9ZM34.6 80.7C34.3 80.7 34 80.7 33.7 80.6C33 80.4 32.4 80.4 31.7 80.6C31.4 80.7 31.1 80.7 30.7 80.7C30.4 80.7 30.1 80.7 29.8 80.6V75.9H34.6V80.7ZM24 75.9H29.4V80.5C29.2 80.5 28.9 80.4 28.7 80.4C28.4 80.4 28 80.4 27.7 80.5C27.4 80.6 27.1 80.6 26.7 80.6C26.4 80.6 26.1 80.6 25.7 80.5C25.4 80.4 25 80.4 24.7 80.4C24.5 80.4 24.2 80.4 24 80.5V75.9ZM18.9 80.7V75.9H23.7V80.6C23.4 80.7 23.1 80.7 22.8 80.7C22.5 80.7 22.2 80.7 21.8 80.6C21.1 80.4 20.5 80.4 19.8 80.6C19.5 80.7 19.2 80.7 18.9 80.7ZM12.6 75.9H18.6V80.7C18.4 80.7 18.1 80.7 17.9 80.6C17.2 80.4 16.6 80.4 15.9 80.6C15.3 80.8 14.6 80.8 14 80.6C13.7 80.5 13.3 80.5 13 80.5H12.6V75.9ZM6.9 75.9H12.3V80.5L11.9 80.6C11.3 80.8 10.6 80.8 10 80.6C9.3 80.4 8.7 80.4 8 80.6C7.7 80.7 7.4 80.7 7.1 80.7H6.9V75.9ZM5.6 36L3.2 33.6H18V36H5.6ZM3.1 65.2C3.6 65.3 4.1 65.4 4.6 65.5L5.4 65.7V66.9L4.7 66.7C4.2 66.5 3.7 66.4 3.2 66.4L3.1 65.2ZM0.1 65.8C0.5 65.7 0.9 65.6 1.3 65.5C1.8 65.4 2.3 65.3 2.7 65.2V66.4C2.2 66.5 1.7 66.6 1.2 66.7C0.8 66.8 0.4 66.9 0 67L0.1 65.8ZM0.1 38.2C0.5 38.1 0.9 38 1.3 37.9C1.8 37.8 2.3 37.7 2.8 37.6V46.2C2.3 46.3 1.8 46.4 1.3 46.5C0.9 46.6 0.5 46.7 0.2 46.8L0.1 38.2ZM3.1 58.4C3.6 58.5 4.1 58.6 4.6 58.7C4.9 58.8 5.1 58.8 5.4 58.9V65.3L4.7 65.1C4.2 64.9 3.7 64.8 3.2 64.8L3.1 58.4ZM0.1 59C0.5 58.9 0.9 58.8 1.3 58.7C1.8 58.6 2.3 58.5 2.7 58.4V64.9C2.2 65 1.7 65.1 1.2 65.2C0.8 65.3 0.4 65.4 0 65.5L0.1 59ZM2.7 58.1C2.2 58.2 1.7 58.3 1.2 58.4C0.8 58.5 0.4 58.6 0.1 58.7V47.1C0.5 47 0.9 46.9 1.3 46.8C1.8 46.7 2.3 46.6 2.8 46.5L2.7 58.1ZM4.6 37.6C4.1 37.5 3.6 37.3 3.1 37.3V33.9L5.4 36.2V37.8L4.6 37.6ZM4.6 46.5C4.1 46.4 3.6 46.2 3.1 46.2V37.6C3.6 37.7 4.1 37.8 4.6 37.9L5.4 38.1V46.7L4.6 46.5ZM3.1 46.5C3.6 46.6 4.1 46.7 4.6 46.8L5.4 47V58.6L4.7 58.4C4.2 58.2 3.7 58.1 3.2 58.1L3.1 46.5ZM17.9 33.3H3.1V32.4H18L17.9 33.3ZM5.6 28.5H6.5V32.1H5.6V28.5ZM43.1 28.5H46.6V32.1H43.1V28.5ZM39.2 28.5H42.7V32.1H39.2V28.5ZM35.4 28.5H38.9V32.1H35.4V28.5ZM35.4 36.3H46.5V38.3H35.4V36.3ZM35.4 51V47.1H46.5V50.9L35.4 51ZM6.9 54.2C7 52.7 8.3 51.6 9.8 51.7C11.2 51.8 12.2 52.9 12.3 54.2V58.5H6.9V54.2ZM17.9 47.1V50.9H6.9V47.1H17.9ZM6.9 42.8C7 41.3 8.3 40.2 9.8 40.3C11.2 40.4 12.2 41.5 12.3 42.8V46.9H6.9V42.8ZM18.3 31.8H35.2V36H18.3V31.8ZM22.9 30.4H20.8V27.8H22.9V30.4ZM25.4 30.4H23.2V27.8H25.4V30.4ZM27.7 30.4H25.7V27.8H27.7V30.4ZM30.2 30.4H28.1V27.8H30.2V30.4ZM32.6 30.4H30.5V27.8H32.6V30.4ZM35.1 30.4H32.9V27.8H35.1V30.4ZM18.3 27.8H20.5V30.3H18.3V27.8ZM18.3 30.7H35.2V31.5H18.3V30.7ZM27.3 50.7H18.3V49.8H35.2V50.7H27.3ZM35.4 58.4V54.2C35.5 52.7 36.8 51.6 38.3 51.7C39.7 51.8 40.7 52.9 40.8 54.2V58.4H35.4ZM35.4 58.7H46.5V62.5H35.5L35.4 58.7ZM41.1 62.8H46.5V70.4H41.2L41.1 62.8ZM12.2 70.4H6.8V62.8H12.2V70.4ZM17.9 62.5H6.9V58.8H18L17.9 62.5ZM12.5 54.5V54.2C12.6 52.7 13.9 51.6 15.4 51.7C16.8 51.8 17.8 52.9 17.9 54.2V58.4H12.5V54.5ZM23.7 53.9V61.3H18.3V53.6C18.3 52.1 19.5 50.9 21 50.9C22.5 51.1 23.7 52.4 23.7 53.9ZM35.1 53.7V61.3H29.7V53.9C29.7 52.4 30.9 51.1 32.4 51C33.9 51 35.1 52.2 35.1 53.7ZM34.8 62.5H18.3V61.6H35.2V62.5H34.8ZM34.8 62.8H40.8V70.4H34.8V62.8ZM26.7 63.5C30.7 63.5 34 66.5 34.5 70.5H18.9C19.4 66.5 22.7 63.5 26.7 63.5ZM12.6 62.8H18.6V70.4H12.6V62.8ZM26.4 51H27.3C27.9 51 28.4 51.1 28.9 51.5C29.3 52.1 29.5 52.8 29.5 53.5V61.3H24V53.4C23.9 52.7 24.1 52 24.6 51.4C25 51 25.6 50.9 26.2 50.9L26.4 51ZM35.4 43.1V42.8C35.3 41.3 36.4 40 37.9 39.9C39.4 39.8 40.7 40.9 40.8 42.4V46.7H35.4V43.1ZM18.3 40.8V40.4C18.3 38.9 19.5 37.7 21 37.7C22.5 37.8 23.7 39.1 23.7 40.6V49.5H18.3V40.8ZM12.6 43.1V42.8C12.5 41.3 13.6 40 15.1 39.9C16.6 39.8 17.9 40.9 18 42.4V46.7H12.6V43.1ZM24 41V40.3C23.9 39.5 24.1 38.8 24.6 38.1C25.2 37.7 25.9 37.5 26.6 37.6H26.9C27.6 37.5 28.3 37.7 28.9 38.1C29.4 38.7 29.6 39.5 29.5 40.3V49.5H24V41ZM35.1 43.1V49.4H29.7V40.5C29.7 39 30.9 37.7 32.4 37.6C33.9 37.6 35.1 38.8 35.1 40.3V43.1ZM6.9 74.5V70.7H18.6V72.7V74.5H6.9ZM26.7 74.5H18.9V70.8H34.5V74.5H26.7ZM34.8 74.5V72.8V70.8H46.5V74.5H34.8ZM14.5 28.5H18V32.1H14.5V28.5ZM10.7 28.5H14.2V32.1H10.7V28.5ZM6.8 28.5H10.3V32.1H6.8V28.5ZM18 38.3H6.9V36.3H18V38.3ZM46.5 54.6V58.5H41.2V54.2C41.3 52.7 42.6 51.6 44.1 51.7C45.5 51.8 46.5 52.9 46.6 54.2L46.5 54.6ZM46.5 43.2V46.9H41.2V42.9C41.1 41.4 42.2 40.1 43.7 40C45.2 39.9 46.5 41 46.6 42.5V42.8L46.5 43.2ZM26.7 26.3H35.1V27.5H18.3V26.3H26.7ZM0.1 25.2C0.5 25.1 0.9 25 1.3 24.9C1.8 24.8 2.3 24.7 2.8 24.6V37.3C2.3 37.4 1.8 37.5 1.3 37.6C0.9 37.7 0.5 37.8 0.2 37.9L0.1 25.2ZM35.4 36V33.6H50.2L47.8 36H35.4ZM50.4 81.8V80.7H50.2C49.9 80.7 49.7 80.7 49.4 80.6C49.1 80.5 48.7 80.5 48.4 80.5H48.1V36.2L50.7 33.6V32H48.1V25.9H35.4V22.8V19.9C35.3 16 33.1 11 29.4 9.2V7.5H26.8V0H26.5V7.5H23.9V9.2C20.2 10.9 18 15.9 17.9 19.9V22.9V26H6.1V15.7H6C5.5 15.6 5.1 15.4 4.7 15.1C4.2 14.8 3.7 14.6 3.2 14.5V7H2.9V14.5C2.4 14.6 1.8 14.8 1.4 15.1C1 15.4 0.6 15.6 0.1 15.7H0V67.1C0.2 67.4 2.2 69.7 3.1 69.7C3.6 69.7 4.4 69.1 5.5 67.9V80.4H5.2C4.9 80.4 4.5 80.4 4.2 80.5C3.9 80.6 3.7 80.6 3.4 80.6H3.1V81.7C4.1 81.7 5.5 84.2 5.5 86.7V100.7V100.8H48.2V86.7C48.1 84.3 49.4 81.8 50.4 81.8Z" fill="white"/>
</svg>
