<svg width="54" height="48" viewBox="0 0 54 48" fill="none" xmlns="http://www.w3.org/2000/svg">
<g clip-path="url(#clip0_227_2740)">
<path fill-rule="evenodd" clip-rule="evenodd" d="M10.7773 2.0588C10.7773 0.921756 11.677 0 12.7867 0H41.6783C42.7881 0 43.6877 0.921756 43.6877 2.0588V45.9412C43.6877 47.0782 42.7881 48 41.6783 48C40.5686 48 39.6689 47.0782 39.6689 45.9412V4.1176H14.7962V28.0727C14.7962 29.2097 13.8965 30.1315 12.7867 30.1315C11.677 30.1315 10.7773 29.2097 10.7773 28.0727V2.0588Z" fill="#AB773A"/>
<path d="M7.39826 33.2478C11.4842 33.2478 14.7965 30.7339 14.7965 27.6329C14.7965 24.5318 11.4842 22.0179 7.39826 22.0179C3.31231 22.0179 0 24.5318 0 27.6329C0 30.7339 3.31231 33.2478 7.39826 33.2478Z" fill="#AB773A"/>
<path fill-rule="evenodd" clip-rule="evenodd" d="M53.4122 33.8506C54.197 34.6546 54.1971 35.9581 53.4125 36.7622L43.0677 47.3632C42.6909 47.7493 42.1798 47.9663 41.6468 47.9663C41.1138 47.9663 40.6027 47.7494 40.2259 47.3633L29.903 36.7867C29.1183 35.9827 29.1183 34.6791 29.903 33.8751C30.6877 33.0711 31.96 33.0711 32.7447 33.8751L41.6466 42.9958L50.5705 33.8509C51.3552 33.0468 52.6274 33.0467 53.4122 33.8506Z" fill="#AB773A"/>
</g>
<defs>
<clipPath id="clip0_227_2740">
<rect width="54" height="48" fill="white"/>
</clipPath>
</defs>
</svg>
