<svg width="26" height="45" viewBox="0 0 26 45" fill="none" xmlns="http://www.w3.org/2000/svg">
<path fill-rule="evenodd" clip-rule="evenodd" d="M13.125 2.8125C14.1605 2.8125 15 3.75389 15 4.91515V40.0849C15 41.2461 14.1605 42.1875 13.125 42.1875C12.0895 42.1875 11.25 41.2461 11.25 40.0849V4.91515C11.25 3.75389 12.0895 2.8125 13.125 2.8125Z" fill="#AB773A"/>
<path d="M7.5 45C11.6421 45 15 42.4816 15 39.375C15 36.2684 11.6421 33.75 7.5 33.75C3.35786 33.75 0 36.2684 0 39.375C0 42.4816 3.35786 45 7.5 45Z" fill="#AB773A"/>
<path fill-rule="evenodd" clip-rule="evenodd" d="M13.1377 1.91797e-09C13.6639 2.30244e-05 14.1686 0.20731 14.5407 0.576254L24.7315 10.6814C25.5063 11.4497 25.5062 12.6951 24.7313 13.4632C23.9564 14.2314 22.7001 14.2312 21.9254 13.463L13.1375 4.74896L4.32449 13.4864C3.54967 14.2545 2.29344 14.2545 1.51862 13.4864C0.743795 12.7182 0.743795 11.4727 1.51862 10.7046L11.7347 0.576131C12.1068 0.207219 12.6115 -2.30206e-05 13.1377 1.91797e-09Z" fill="#AB773A"/>
</svg>
