<svg width="50" height="50" viewBox="0 0 50 50" fill="none" xmlns="http://www.w3.org/2000/svg">
<path d="M16.2494 4.16699H33.7494C40.416 4.16699 45.8327 9.58366 45.8327 16.2503V33.7503C45.8327 36.955 44.5596 40.0285 42.2936 42.2945C40.0275 44.5606 36.9541 45.8337 33.7494 45.8337H16.2494C9.58268 45.8337 4.16602 40.417 4.16602 33.7503V16.2503C4.16602 13.0456 5.43908 9.97218 7.70514 7.70612C9.97121 5.44005 13.0447 4.16699 16.2494 4.16699ZM15.8327 8.33366C13.8436 8.33366 11.9359 9.12384 10.5294 10.5304C9.12286 11.9369 8.33268 13.8445 8.33268 15.8337V34.167C8.33268 38.3128 11.6868 41.667 15.8327 41.667H34.166C36.1551 41.667 38.0628 40.8768 39.4693 39.4703C40.8758 38.0638 41.666 36.1561 41.666 34.167V15.8337C41.666 11.6878 38.3119 8.33366 34.166 8.33366H15.8327ZM35.9369 11.4587C36.6275 11.4587 37.2899 11.733 37.7783 12.2214C38.2667 12.7098 38.541 13.3722 38.541 14.0628C38.541 14.7535 38.2667 15.4159 37.7783 15.9043C37.2899 16.3926 36.6275 16.667 35.9369 16.667C35.2462 16.667 34.5838 16.3926 34.0954 15.9043C33.607 15.4159 33.3327 14.7535 33.3327 14.0628C33.3327 13.3722 33.607 12.7098 34.0954 12.2214C34.5838 11.733 35.2462 11.4587 35.9369 11.4587ZM24.9994 14.5837C27.762 14.5837 30.4115 15.6811 32.365 17.6346C34.3186 19.5881 35.416 22.2377 35.416 25.0003C35.416 27.763 34.3186 30.4125 32.365 32.366C30.4115 34.3195 27.762 35.417 24.9994 35.417C22.2367 35.417 19.5872 34.3195 17.6337 32.366C15.6802 30.4125 14.5827 27.763 14.5827 25.0003C14.5827 22.2377 15.6802 19.5881 17.6337 17.6346C19.5872 15.6811 22.2367 14.5837 24.9994 14.5837ZM24.9994 18.7503C23.3417 18.7503 21.752 19.4088 20.5799 20.5809C19.4078 21.753 18.7494 23.3427 18.7494 25.0003C18.7494 26.6579 19.4078 28.2476 20.5799 29.4197C21.752 30.5918 23.3417 31.2503 24.9994 31.2503C26.657 31.2503 28.2467 30.5918 29.4188 29.4197C30.5909 28.2476 31.2494 26.6579 31.2494 25.0003C31.2494 23.3427 30.5909 21.753 29.4188 20.5809C28.2467 19.4088 26.657 18.7503 24.9994 18.7503Z" fill="white"/>
</svg>
