<svg width="50" height="50" viewBox="0 0 50 50" fill="none" xmlns="http://www.w3.org/2000/svg">
<path d="M46.7923 12.4997C45.1881 13.2288 43.459 13.708 41.6673 13.9372C43.5006 12.833 44.9173 11.083 45.584 8.97884C43.8548 10.0205 41.9381 10.7497 39.9173 11.1663C38.2715 9.37467 35.959 8.33301 33.334 8.33301C28.4382 8.33301 24.4381 12.333 24.4381 17.2705C24.4381 17.9788 24.5215 18.6663 24.6673 19.3122C17.2507 18.9372 10.6465 15.3747 6.25065 9.97884C5.47982 11.2913 5.04232 12.833 5.04232 14.458C5.04232 17.5622 6.60482 20.3122 9.02148 21.8747C7.54232 21.8747 6.16732 21.458 4.95898 20.833V20.8955C4.95898 25.2288 8.04232 28.8538 12.1257 29.6663C10.8147 30.0251 9.43835 30.075 8.10482 29.8122C8.67066 31.5882 9.77885 33.1422 11.2736 34.2558C12.7684 35.3694 14.5745 35.9865 16.4382 36.0205C13.279 38.5214 9.36314 39.8733 5.33398 39.8538C4.62565 39.8538 3.91732 39.8122 3.20898 39.7288C7.16732 42.2705 11.8757 43.7497 16.9173 43.7497C33.334 43.7497 42.3548 30.1247 42.3548 18.3122C42.3548 17.9163 42.3548 17.5413 42.334 17.1455C44.084 15.8955 45.584 14.3122 46.7923 12.4997Z" fill="white"/>
</svg>
