<svg width="55" height="56" viewBox="0 0 55 56" fill="none" xmlns="http://www.w3.org/2000/svg">
<path d="M20.6256 36.9229H25.209V18.5896H20.6256V36.9229ZM29.7923 36.9229H34.3756V18.5896H29.7923V36.9229ZM27.5006 50.6729C24.3305 50.6729 21.3513 50.071 18.5632 48.8671C15.775 47.6647 13.3496 46.0323 11.2871 43.9698C9.22461 41.9073 7.59218 39.482 6.38982 36.6938C5.18593 33.9056 4.58398 30.9264 4.58398 27.7563C4.58398 24.5861 5.18593 21.607 6.38982 18.8188C7.59218 16.0306 9.22461 13.6052 11.2871 11.5427C13.3496 9.48022 15.775 7.84703 18.5632 6.64314C21.3513 5.44078 24.3305 4.8396 27.5006 4.8396C30.6708 4.8396 33.65 5.44078 36.4381 6.64314C39.2263 7.84703 41.6517 9.48022 43.7142 11.5427C45.7767 13.6052 47.4091 16.0306 48.6115 18.8188C49.8154 21.607 50.4173 24.5861 50.4173 27.7563C50.4173 30.9264 49.8154 33.9056 48.6115 36.6938C47.4091 39.482 45.7767 41.9073 43.7142 43.9698C41.6517 46.0323 39.2263 47.6647 36.4381 48.8671C33.65 50.071 30.6708 50.6729 27.5006 50.6729Z" fill="white"/>
</svg>
