<svg width="55" height="56" viewBox="0 0 55 56" fill="none" xmlns="http://www.w3.org/2000/svg">
<path d="M22.9173 38.0688L36.6673 27.7563L22.9173 17.4438V38.0688ZM27.5006 4.8396C14.8507 4.8396 4.58398 15.1063 4.58398 27.7563C4.58398 40.4063 14.8507 50.6729 27.5006 50.6729C40.1506 50.6729 50.4173 40.4063 50.4173 27.7563C50.4173 15.1063 40.1506 4.8396 27.5006 4.8396ZM27.5006 46.0896C17.3944 46.0896 9.16732 37.8625 9.16732 27.7563C9.16732 17.65 17.3944 9.42293 27.5006 9.42293C37.6069 9.42293 45.834 17.65 45.834 27.7563C45.834 37.8625 37.6069 46.0896 27.5006 46.0896Z" fill="white"/>
</svg>
