<svg width="473" height="153" viewBox="0 0 473 153" fill="none" xmlns="http://www.w3.org/2000/svg">
<rect y="120" width="56" height="7" fill="#013896"/>
<rect x="56" y="120" width="56" height="7" fill="white"/>
<rect x="112" y="120" width="56" height="7" fill="#CF142B"/>
<path d="M201.344 138.832C207.552 138.832 210.816 135.76 212.096 133.968V138H219.968V95.76H212.096V111.76C210.816 110.096 207.552 107.28 201.216 107.28C197.504 107.28 193.536 108.688 191.04 111.248C188.096 114.256 186.496 118.352 186.56 122.832C186.624 129.104 189.184 132.88 191.296 134.992C193.728 137.488 197.696 138.832 201.344 138.832ZM194.176 123.152C194.176 117.776 197.504 114.512 202.944 114.512H203.392C208.96 114.512 212.224 117.648 212.224 123.024C212.224 128.464 209.024 131.664 203.456 131.664H203.008C197.44 131.664 194.176 128.528 194.176 123.152ZM242.562 138.832C254.978 138.832 257.666 128.464 257.666 128.464H249.858C249.858 128.464 248.13 132.304 242.818 132.304H242.434C240.258 132.368 238.082 131.472 236.546 129.936C235.33 128.592 234.626 126.928 234.498 125.2H258.178C258.562 122.384 258.37 115.536 254.466 111.056C251.714 107.92 247.746 106.32 242.562 106.32C237.826 106.32 226.626 107.984 226.626 122.64C226.626 136.912 239.042 138.832 242.562 138.832ZM234.562 119.504C234.69 117.712 235.394 115.984 236.674 114.64C238.018 113.232 240.194 112.528 242.69 112.528H242.753C245.314 112.528 247.298 113.232 248.578 114.64C249.794 115.984 250.498 117.712 250.562 119.504H234.562ZM281.48 138H288.968V125.008C288.968 121.168 291.08 118.864 294.6 118.864H301.96V112.144H294.6C291.912 112.144 289.096 110.48 289.096 106C289.096 102.224 291.144 99.984 294.6 99.984H304.328V93.264H281.48V138ZM309.967 138H317.903V125.84C317.903 120.528 319.119 114.896 327.247 114.896H328.143V107.152C321.807 107.152 318.991 110.16 317.903 112.016V107.728H309.967V138ZM346.907 138.576C355.099 138.576 358.171 134.096 358.171 134.096C358.811 135.504 360.859 138 366.491 138H368.155V130.896H365.595L365.659 107.728H357.787V111.952C357.403 111.376 354.459 107.024 346.907 107.024C341.467 107.024 332.187 110.416 332.187 122.768C332.187 131.024 337.179 138.576 346.907 138.576ZM339.867 122.768C339.867 117.328 343.067 114.256 348.635 114.256H349.083C354.651 114.256 357.851 117.392 357.851 122.896C357.851 128.272 354.651 131.344 349.019 131.344H348.571C343.003 131.344 339.867 128.208 339.867 122.768ZM374.592 138H382.4V120.464C382.4 116.24 384.96 113.808 389.312 113.808H389.696C394.048 113.808 396.352 116.112 396.352 120.528V138H404.16V119.888C404.16 113.488 400.832 106.96 391.552 106.96C386.496 106.96 383.616 109.712 382.4 111.504V107.728H374.592V138ZM425.864 138.832C427.848 138.832 430.344 138.64 432.328 137.808V131.28C427.72 132.304 423.56 131.92 421 129.808C419.016 128.208 417.928 125.776 417.928 122.896C417.928 119.696 419.144 117.136 421.256 115.472C423.816 113.424 427.912 113.104 432.328 114.256V107.664C430.344 106.768 427.848 106.576 426.056 106.576C417.224 106.64 410.184 114 410.12 122.96C410.12 128.912 412.808 132.624 415.112 134.672C418.056 137.296 421.896 138.832 425.864 138.832ZM453.124 138.832C465.54 138.832 468.228 128.464 468.228 128.464H460.42C460.42 128.464 458.692 132.304 453.38 132.304H452.996C450.82 132.368 448.644 131.472 447.108 129.936C445.892 128.592 445.188 126.928 445.06 125.2H468.74C469.124 122.384 468.932 115.536 465.028 111.056C462.276 107.92 458.308 106.32 453.124 106.32C448.388 106.32 437.188 107.984 437.188 122.64C437.188 136.912 449.604 138.832 453.124 138.832ZM445.124 119.504C445.252 117.712 445.956 115.984 447.236 114.64C448.58 113.232 450.756 112.528 453.252 112.528H453.316C455.876 112.528 457.86 113.232 459.14 114.64C460.356 115.984 461.06 117.712 461.124 119.504H445.124Z" fill="white"/>
<path d="M1.152 75H13.824L15.648 70.2C16.608 68.088 17.664 65.784 19.68 64.056C22.848 61.272 27.168 59.928 32.832 59.832H33.792C39.264 59.928 43.68 61.368 46.944 64.344C48.672 66.072 49.728 68.088 50.688 70.488L52.32 75H65.184L41.088 7.89599H25.632L1.152 75ZM23.328 50.808L33.312 20.28L43.104 50.808H23.328ZM93.5453 76.248C96.5213 76.248 100.265 75.96 103.241 74.712V64.92C96.3293 66.456 90.0893 65.88 86.2493 62.712C83.2733 60.312 81.6413 56.664 81.6413 52.344C81.6413 47.544 83.4653 43.704 86.6333 41.208C90.4733 38.136 96.6173 37.656 103.241 39.384V29.496C100.265 28.152 96.5213 27.864 93.8333 27.864C80.5853 27.96 70.0253 39 69.9293 52.44C69.9293 61.368 73.9613 66.936 77.4173 70.008C81.8333 73.944 87.5933 76.248 93.5453 76.248ZM134.327 76.248C137.303 76.248 141.047 75.96 144.023 74.712V64.92C137.111 66.456 130.871 65.88 127.031 62.712C124.055 60.312 122.423 56.664 122.423 52.344C122.423 47.544 124.247 43.704 127.415 41.208C131.255 38.136 137.399 37.656 144.023 39.384V29.496C141.047 28.152 137.303 27.864 134.615 27.864C121.367 27.96 110.807 39 110.711 52.44C110.711 61.368 114.743 66.936 118.199 70.008C122.615 73.944 128.375 76.248 134.327 76.248ZM176.945 76.248C184.433 76.248 191.441 73.656 195.665 69.528C200.081 65.496 202.865 58.872 202.865 51.96C202.769 44.952 200.273 38.616 195.761 34.68C191.537 30.456 184.433 27.864 176.945 27.864C169.457 27.864 162.353 30.456 158.129 34.68C153.617 38.616 151.025 44.952 151.025 51.96C151.025 58.872 153.617 65.4 158.129 69.336C162.353 73.56 169.457 76.248 176.945 76.248ZM162.737 51.864C162.737 43.416 167.825 38.52 176.657 38.52H177.329C186.065 38.52 191.153 43.512 191.153 52.152C191.057 60.6 186.065 65.496 177.233 65.496H176.561C167.729 65.496 162.737 60.504 162.737 51.864ZM212.481 75H224.385V56.76C224.385 48.792 226.209 40.344 238.401 40.344H239.745V28.728C230.241 28.728 226.017 33.24 224.385 36.024V29.592H212.481V75ZM267.891 76.248C277.203 76.248 282.099 71.64 284.019 68.952V75H295.827V11.64H284.019V35.64C282.099 33.144 277.203 28.92 267.699 28.92C262.131 28.92 256.179 31.032 252.435 34.872C248.019 39.384 245.619 45.528 245.715 52.248C245.811 61.656 249.651 67.32 252.819 70.488C256.467 74.232 262.419 76.248 267.891 76.248ZM257.139 52.728C257.139 44.664 262.131 39.768 270.291 39.768H270.963C279.315 39.768 284.211 44.472 284.211 52.536C284.211 60.696 279.411 65.496 271.059 65.496H270.387C262.035 65.496 257.139 60.792 257.139 52.728ZM329.717 76.248C348.341 76.248 352.373 60.696 352.373 60.696H340.661C340.661 60.696 338.069 66.456 330.101 66.456H329.525C326.261 66.552 322.997 65.208 320.693 62.904C318.869 60.888 317.813 58.392 317.621 55.8H353.141C353.717 51.576 353.429 41.304 347.573 34.584C343.445 29.88 337.493 27.48 329.717 27.48C322.613 27.48 305.813 29.976 305.813 51.96C305.813 73.368 324.437 76.248 329.717 76.248ZM317.717 47.256C317.909 44.568 318.965 41.976 320.885 39.96C322.901 37.848 326.165 36.792 329.909 36.792H330.005C333.845 36.792 336.821 37.848 338.741 39.96C340.565 41.976 341.621 44.568 341.717 47.256H317.717ZM387.039 76.248C394.527 76.248 401.535 73.656 405.759 69.528C410.175 65.496 412.959 58.872 412.959 51.96C412.863 44.952 410.367 38.616 405.855 34.68C401.631 30.456 394.527 27.864 387.039 27.864C379.551 27.864 372.447 30.456 368.223 34.68C363.711 38.616 361.119 44.952 361.119 51.96C361.119 58.872 363.711 65.4 368.223 69.336C372.447 73.56 379.551 76.248 387.039 76.248ZM372.831 51.864C372.831 43.416 377.919 38.52 386.751 38.52H387.423C396.159 38.52 401.247 43.512 401.247 52.152C401.151 60.6 396.159 65.496 387.327 65.496H386.655C377.823 65.496 372.831 60.504 372.831 51.864ZM422.575 75H434.287V48.696C434.287 42.36 438.127 38.712 444.655 38.712H445.231C451.759 38.712 455.215 42.168 455.215 48.792V75H466.927V47.832C466.927 38.232 461.935 28.44 448.015 28.44C440.431 28.44 436.111 32.568 434.287 35.256V29.592H422.575V75Z" fill="white"/>
</svg>
